<svg xmlns="http://www.w3.org/2000/svg" viewBox="0 0 148.79 114.79"><g id="Layer_2" data-name="Layer 2"><g id="Graphic_Elements" data-name="Graphic Elements"><path d="M0,0H0A58.86,58.86,0,0,1,58.86,58.86v55.93a0,0,0,0,1,0,0h0A58.86,58.86,0,0,1,0,55.93V0A0,0,0,0,1,0,0Z" style="fill:#557cdf"/><path d="M64,67.2h0V37.5A37.5,37.5,0,0,1,101.52,0h0V29.71A37.49,37.49,0,0,1,64,67.2Z" style="fill:#557cdf"/><path d="M64,73h43a41.76,41.76,0,0,1,41.76,41.76v0a0,0,0,0,1,0,0h-43A41.76,41.76,0,0,1,64,73v0a0,0,0,0,1,0,0Z" style="fill:#557cdf;opacity:0.54"/></g></g></svg>